<svg xmlns="http://www.w3.org/2000/svg" viewBox="0 0 75 55"><defs><style>.cls-1{fill:#ddd;}.cls-2{fill:none;stroke:#aaa;stroke-linecap:round;stroke-miterlimit:10;}.cls-3{fill:#aaa;}</style></defs><g id="Layer_2" data-name="Layer 2"><g id="Layer_1-2" data-name="Layer 1"><rect class="cls-1" x="1" y="1" width="73" height="53" rx="1.23"/><path class="cls-1" d="M72.77,2a.23.23,0,0,1,.23.23V52.77a.23.23,0,0,1-.23.23H2.23A.23.23,0,0,1,2,52.77V2.23A.23.23,0,0,1,2.23,2H72.77m0-2H2.23A2.23,2.23,0,0,0,0,2.23V52.77A2.23,2.23,0,0,0,2.23,55H72.77A2.23,2.23,0,0,0,75,52.77V2.23A2.23,2.23,0,0,0,72.77,0Z"/><line class="cls-2" x1="1" y1="1" x2="73.5" y2="54.5"/><line class="cls-2" x1="73.5" y1="1" x2="1" y2="54.5"/><path class="cls-3" d="M35.82,17c-.08,0-.13.11-.82,1.15-1.61,2.42-1.31,2-4.42,6.68C29.7,26.19,29,27.3,29,27.32a.14.14,0,0,0,0,.18s.89.43,2.09,1l2.08,1a.14.14,0,0,1,0,.2l-.59.73-.88,1.06c-.18.22-.45.54-.58.71L30,33.55,28.79,35l-.59.72c-1.48,1.79-1.38,1.67-1.38,1.73a.3.3,0,0,0,.26.25c.09,0-.5.34,5.08-2.83l3.63-2.06L40,30.4l3.49-2,1.68-1a.1.1,0,0,0,0-.17l-2.08-1-2.12-1c-.1,0-.13-.11-.11-.18s.21-.28,1.52-1.86l.83-1,1-1.21,1.18-1.42,1.24-1.5c.44-.53.81-1,.83-1s0-.13,0-.15-2.23,0-5.77,0C36,17,35.9,17,35.82,17Z"/></g></g></svg>