<svg xmlns="http://www.w3.org/2000/svg" viewBox="0 0 75 55"><defs><style>.cls-1{fill:#ddd;}.cls-2{fill:none;stroke:#aaa;stroke-linecap:round;stroke-miterlimit:10;}</style></defs><g id="Layer_2" data-name="Layer 2"><g id="Layer_1-2" data-name="Layer 1"><rect class="cls-1" x="1" y="1" width="73" height="53" rx="1.23"/><path class="cls-1" d="M72.77,2a.23.23,0,0,1,.23.23V52.77a.23.23,0,0,1-.23.23H2.23A.23.23,0,0,1,2,52.77V2.23A.23.23,0,0,1,2.23,2H72.77m0-2H2.23A2.23,2.23,0,0,0,0,2.23V52.77A2.23,2.23,0,0,0,2.23,55H72.77A2.23,2.23,0,0,0,75,52.77V2.23A2.23,2.23,0,0,0,72.77,0Z"/><line class="cls-2" x1="1" y1="1" x2="73.5" y2="54.5"/><line class="cls-2" x1="73.5" y1="1" x2="1" y2="54.5"/></g></g></svg>