<svg xmlns="http://www.w3.org/2000/svg" viewBox="0 0 75 55"><defs><style>.cls-1{fill:#4dd191;}.cls-2{fill:#e8d100;}</style></defs><g id="Layer_2" data-name="Layer 2"><g id="Layer_1-2" data-name="Layer 1"><path class="cls-1" d="M69,6V49H6V6H69m3.77-6H2.23A2.23,2.23,0,0,0,0,2.23V52.77A2.23,2.23,0,0,0,2.23,55H72.77A2.23,2.23,0,0,0,75,52.77V2.23A2.23,2.23,0,0,0,72.77,0Z"/><path class="cls-2" d="M34.82,17c-.08,0-.13.11-.82,1.15-1.61,2.42-1.31,2-4.42,6.68C28.7,26.19,28,27.3,28,27.32a.14.14,0,0,0,0,.18s.89.43,2.09,1l2.08,1a.14.14,0,0,1,0,.2l-.59.73-.88,1.06c-.18.22-.45.54-.58.71L29,33.55,27.79,35l-.59.72c-1.48,1.79-1.38,1.67-1.38,1.73a.3.3,0,0,0,.26.25c.09,0-.5.34,5.08-2.83l3.63-2.06L39,30.4l3.49-2,1.68-1a.1.1,0,0,0,0-.17l-2.08-1-2.12-1c-.1,0-.13-.11-.11-.18s.21-.28,1.52-1.86l.83-1,1-1.21,1.18-1.42,1.24-1.5c.44-.53.81-1,.83-1s0-.13,0-.15-2.23,0-5.77,0C35,17,34.9,17,34.82,17Z"/></g></g></svg>